<svg width="400" height="400" viewBox="0 0 400 400" fill="none" xmlns="http://www.w3.org/2000/svg">
<g opacity="0.31">
<path d="M348.45 326.887C348.45 333.452 283.655 338.774 203.725 338.774C123.795 338.774 59 333.452 59 326.887C59 320.322 123.795 315 203.725 315C283.655 315 348.45 320.322 348.45 326.887Z" fill="#87878A"/>
</g>
<path d="M167.875 134.826C180.528 137.262 207.371 136.458 227.308 136.292C234.971 136.221 242.35 136.954 245.897 139.106C246.535 139.484 247.056 139.91 247.434 140.407C249.066 142.583 250.603 151.948 249.397 153.154C235.491 167.061 229.578 242.292 229.885 252.343C230.121 260.029 234.639 290.775 235.845 304.894C236.223 309.269 236.294 312.06 235.798 312.06C233.74 312.06 231.659 319.155 231.659 319.155H267.418C267.56 316.884 267.513 314.047 267.324 310.877C267.229 308.985 267.087 306.975 266.898 304.894C265.242 285.927 260.654 259.485 259.756 252.627C258.574 243.782 264.77 212.138 266.544 211.925C268.318 211.712 269.216 238.745 271.865 249.387C273.946 257.783 296.248 291.13 305.614 304.894C308.121 308.607 309.706 310.877 309.706 310.877C307.341 312.06 305.567 319.155 307.932 320.645C310.297 322.111 334.539 303.782 335.437 298.177C335.626 297.018 334.444 294.204 332.481 290.443C331.582 288.717 330.518 286.825 329.335 284.767C320.442 269.394 304.857 246.335 303.202 241.984C300.837 235.788 302.019 207.123 299.654 185.531C297.289 163.938 285.653 154.786 285.464 153.012C285.37 152.042 285.961 148.684 287.593 145.397C288.326 143.883 289.296 142.37 290.526 141.116C291.448 140.17 292.513 139.366 293.742 138.822C295.303 138.136 298.732 138.089 303.155 138.467C316.659 139.602 339.245 144.545 345.182 146.698C353.058 149.559 361.737 149.181 364.882 146.698C368.051 144.238 366.372 144.144 364.196 143.954C362.02 143.741 362.233 143.363 364.385 139.602C366.561 135.865 372.379 124.726 370.7 122.952C369.021 121.178 363.51 133.311 362.824 132.814C362.138 132.317 364.881 127.493 363.415 127.185C361.925 126.901 358.685 133.499 359.465 131.442C360.246 129.361 361.452 125.411 358.59 126.594C355.728 127.776 355.634 131.04 352.677 131.04C350.525 131.04 327.489 120.587 309.965 113.208C303.366 110.441 297.548 108.076 293.93 106.894C290.69 105.83 287.473 105.049 284.494 104.505C282.223 104.079 280.071 103.796 278.132 103.583C272.219 102.968 268.175 103.157 268.175 103.157C265.621 103.063 262.617 103.205 259.448 103.441C257.509 103.583 255.498 103.796 253.488 104.009C248.498 104.577 243.578 105.286 239.795 105.854C237.241 106.232 232.771 107.25 227.378 108.55C216.097 111.27 200.984 115.196 191.311 117.088C176.979 119.902 172.674 120.494 169.884 117.679C167.07 114.888 164.539 114.888 164.397 116.071C164.137 118.152 168.181 122.196 166.1 120.872C164.042 119.524 160.424 117.987 160.424 120.186C160.424 122.409 167.354 128.629 167.354 130.096C167.354 131.586 166.03 130.025 164.54 130.096C161.371 130.261 163.831 134.046 167.875 134.826Z" fill="#F4B9B0"/>
<path d="M307.931 320.646C310.296 322.112 334.538 303.783 335.436 298.178C335.625 297.019 334.443 294.205 332.48 290.444L309.705 310.878C307.34 312.061 305.566 319.156 307.931 320.646Z" fill="#403532"/>
<path d="M231.66 319.156H267.419C267.561 316.885 267.514 314.048 267.325 310.878L235.799 312.061C233.741 312.061 231.66 319.156 231.66 319.156Z" fill="#403532"/>
<path d="M227.309 108.574V136.292C234.972 136.221 242.351 136.954 245.898 139.106L287.593 145.397C288.326 143.883 289.296 142.37 290.526 141.116C291.448 140.17 292.513 139.366 293.742 138.822C295.303 138.136 298.732 138.089 303.155 138.467L309.966 113.209C303.367 110.442 297.549 108.077 293.931 106.895C290.691 105.831 287.474 105.05 284.495 104.506C282.224 104.08 280.072 103.797 278.133 103.584C272.22 102.969 268.176 103.158 268.176 103.158C265.622 103.064 262.618 103.206 259.449 103.442C257.51 103.584 255.499 103.797 253.489 104.01C248.499 104.578 243.579 105.287 239.796 105.855C237.242 106.233 232.772 107.251 227.379 108.551C227.333 108.574 227.309 108.574 227.309 108.574Z" fill="#FF7653"/>
<path d="M248.615 87.0191C248.615 89.6881 250.778 91.8511 253.447 91.8511C256.116 91.8511 258.279 89.6881 258.279 87.0191C258.279 84.3511 256.116 82.1871 253.447 82.1871C250.778 82.1881 248.615 84.3511 248.615 87.0191Z" fill="#403532"/>
<path d="M264.954 80.2881C267.147 80.9011 270.835 85.4951 271.747 88.7531C272.499 91.4401 272.842 94.3671 271.873 96.9841C268.681 105.611 260.032 100.563 257.378 94.7741C253.973 87.3441 259.416 78.7411 264.954 80.2881Z" fill="#F4B9B0"/>
<path d="M266.27 106.895H270.084C271.396 106.895 272.469 105.821 272.469 104.51V93.4641C272.469 92.1521 271.396 91.0791 270.084 91.0791H266.27C264.958 91.0791 263.885 92.1521 263.885 93.4641V104.51C263.885 105.822 264.958 106.895 266.27 106.895Z" fill="#F4B9B0"/>
<path d="M271.356 89.3331C271.356 89.3331 273.495 86.8361 273.939 90.2361C274.382 93.6361 273.369 94.0791 271.732 93.4881C270.095 92.8971 271.356 89.3331 271.356 89.3331Z" fill="#F4B9B0"/>
<path d="M264.484 87.0141C261.54 84.9811 261.212 81.1391 261.951 80.3991C262.69 79.6601 267.185 77.0361 270.893 80.8051C274.601 84.5741 277.505 93.2221 272.468 95.2171L272.405 93.7081C272.405 93.7081 273.586 93.8171 273.787 92.2381C273.988 90.6591 273.795 88.7951 273.034 88.6281C272.273 88.4611 271.792 88.9161 271.792 88.9161C271.792 88.9161 268.176 89.5641 264.484 87.0141Z" fill="#403532"/>
<path d="M261.371 80.5841C261.371 80.5841 260.78 83.3191 262.11 85.6101C262.11 85.6101 257.675 89.2431 258.267 93.7091C258.858 98.1741 260.551 98.9871 260.551 98.9871C260.551 98.9871 256.198 96.3261 255.311 91.0791C254.424 85.8311 254.571 82.8751 261.371 80.5841Z" fill="#403532"/>
<path d="M266.846 79.7991C266.846 82.4671 269.009 84.6311 271.678 84.6311C274.347 84.6311 276.51 82.4681 276.51 79.7991C276.51 77.1311 274.347 74.9671 271.678 74.9671C269.009 74.9671 266.846 77.1301 266.846 79.7991Z" fill="#403532"/>
<path d="M229.886 252.344C230.122 260.03 234.64 290.776 235.846 304.895H266.899C265.243 285.928 260.655 259.486 259.757 252.628C258.575 243.783 264.771 212.139 266.545 211.926C268.319 211.713 269.217 238.746 271.866 249.388C273.947 257.784 296.249 291.131 305.615 304.895L329.336 284.769C320.443 269.396 304.858 246.337 303.203 241.986C300.838 235.79 302.02 207.125 299.655 185.533C297.29 163.94 285.654 154.788 285.465 153.014C285.323 151.595 286.671 145.068 290.526 141.118C275.65 132.982 284.495 104.507 284.495 104.507C282.224 104.081 280.072 103.798 278.133 103.585C277.258 105.832 275.744 115.458 275.153 118.13C274.515 121.086 260.443 119.502 258.527 118.13C256.611 116.758 258.669 109.261 259.449 103.443C257.51 103.585 255.499 103.798 253.489 104.011C249.989 120.101 247.435 140.409 247.435 140.409C249.067 142.585 250.604 151.95 249.398 153.156C235.491 167.061 229.579 242.293 229.886 252.344Z" fill="#24718F"/>
<path d="M52.6737 109.51C52.3057 109.054 51.9357 108.598 51.5647 108.142C47.9457 103.689 44.3217 99.3661 42.5337 98.0841C38.4647 95.1651 32.1857 94.5671 31.0597 95.7461C29.9347 96.9241 31.0427 97.4701 34.5597 98.0851C38.0777 98.7001 36.0327 99.8661 34.9117 99.4921C33.7907 99.1191 24.0597 97.0491 22.0367 99.4231C20.0147 101.798 24.3227 101.094 27.2867 101.436C30.2507 101.778 31.3537 102.381 30.7607 102.623C30.1677 102.865 26.8867 101.405 23.2107 102.101C19.5347 102.796 19.4247 104.973 21.0077 105.324C22.5907 105.676 23.6147 105.064 26.3017 105.271C28.9887 105.477 30.5937 105.543 30.1497 106.084C29.7057 106.625 21.9627 104.88 20.3097 106.938C18.6567 108.996 23.9727 108.657 27.9127 109.017C31.1167 109.31 36.7097 111.308 40.5087 115.305C41.0687 115.894 41.5807 116.533 42.0577 117.201C45.3947 114.295 48.9267 111.701 52.6737 109.51Z" fill="#F4B9B0"/>
<path d="M208.264 104.596C208.558 104.089 208.854 103.582 209.151 103.075C212.048 98.1211 214.969 93.2961 216.54 91.7561C220.115 88.2501 226.229 86.7001 227.522 87.6931C228.814 88.6861 227.803 89.3941 224.42 90.5391C221.038 91.6841 223.236 92.5241 224.287 91.9831C225.338 91.4431 234.639 87.9111 237 89.9491C239.361 91.9871 234.995 91.9491 232.119 92.7401C229.242 93.5311 228.244 94.2951 228.867 94.4431C229.49 94.5911 232.51 92.6481 236.248 92.7741C239.987 92.9001 240.428 95.0341 238.917 95.6231C237.406 96.2121 236.301 95.7641 233.677 96.3791C231.054 96.9931 229.477 97.3031 229.999 97.7701C230.52 98.2371 237.907 95.3301 239.854 97.1111C241.802 98.8921 236.497 99.3691 232.658 100.326C229.536 101.105 224.314 103.934 221.17 108.464C220.706 109.132 220.298 109.841 219.929 110.575C216.188 108.213 212.301 106.189 208.264 104.596Z" fill="#F4B9B0"/>
<path d="M175.158 95.0341C168.789 88.2691 159.863 84.5041 150.574 84.6641L137.755 84.8851C131.729 84.9891 125.774 86.2071 120.191 88.4781L108.764 93.1261C103.044 95.4531 98.0922 99.3391 94.4712 104.342L79.3672 125.214C85.5452 126.217 77.1632 140.15 82.9582 143.904L104.077 127.965C105.046 127.046 106.647 127.554 106.909 128.863L112.025 173.017L145.367 172.216C149.659 172.113 153.876 171.065 157.718 169.146L179.881 158.077L169.953 122.323C169.608 120.777 171.382 119.643 172.64 120.606L187.609 132.061C188.063 125.103 189.412 118.146 190.368 111.188L175.158 95.0341Z" fill="#14BC92"/>
<path d="M179.881 158.078C179.881 158.078 209.956 204.244 209.537 239.333C209.117 274.422 209.789 312.337 209.789 312.337L175.547 312.526C175.547 312.526 180.704 260.892 175.547 241.526C170.39 222.16 158.552 201.562 155.405 201.777C152.258 201.992 143.655 255.507 138.2 274.697C132.745 293.887 133.61 313.613 133.61 313.613L99.4805 309.021C99.4805 309.021 109.14 237.552 111.028 213.017C112.916 188.482 112.025 173.019 112.025 173.019C112.025 173.019 161.831 169.428 179.881 158.078Z" fill="#0061B0"/>
<path d="M51.5638 108.142C51.6778 108.302 62.4888 121.73 62.4888 121.73C66.5608 126.499 73.8118 128.434 78.7898 124.62L82.2238 121.99C85.0178 128.304 100.41 124.461 100.427 130.72L78.5968 147.897C73.4588 150.496 64.7928 148.433 61.3758 143.798L40.0918 114.916C44.0358 113.583 48.5678 110.976 51.5638 108.142Z" fill="#14BC92"/>
<path d="M99.8308 306.496L97.8828 320.5C97.8828 320.5 135.387 328.729 136.381 323.965C137.375 319.201 133.609 313.612 133.609 313.612L99.8308 306.496Z" fill="#403532"/>
<path d="M175.575 311.837L175.236 326.064C175.236 326.064 213.259 326.942 213.703 322.038C214.146 317.134 209.788 312.336 209.788 312.336L175.575 311.837Z" fill="#403532"/>
<path d="M127.198 77.2631C127.198 77.2631 127.714 70.3611 134.426 70.6371C141.138 70.9131 139.589 82.0941 134.426 83.7511C129.263 85.4071 125.813 81.1291 127.198 77.2631Z" fill="#F4B9B0"/>
<path d="M127.632 75.0921C127.632 75.0921 126.148 72.3221 125.734 75.0921C125.32 77.8621 124.919 79.4061 126.983 78.7031C129.047 78.0001 128.219 75.2391 128.219 75.2391L127.632 75.0921Z" fill="#F4B9B0"/>
<path d="M129.998 90.1911H129.648C128.055 90.1911 126.752 88.8881 126.752 87.2951V80.9401C126.752 79.3471 128.055 78.0441 129.648 78.0441H129.998C131.591 78.0441 132.894 79.3471 132.894 80.9401V87.2951C132.894 88.8881 131.591 90.1911 129.998 90.1911Z" fill="#F4B9B0"/>
<path d="M126.753 84.1171C126.753 84.1171 127.279 79.1921 123.69 78.8721C120.101 78.5521 119.692 69.9021 123.414 65.8521C126.502 62.4921 128.797 65.9901 131.972 63.9191C135.147 61.8481 139.237 60.9151 140.204 63.9181C141.17 66.9211 137.632 66.6791 140.255 69.5781C142.878 72.4771 144.95 78.0831 141.842 79.4401C138.734 80.7971 137.307 81.4191 137.307 81.4191C137.307 81.4191 138.46 78.3451 137.632 75.4461C136.804 72.5471 136.873 72.8281 134.043 73.8611C131.213 74.8941 130.523 74.2091 129.281 73.8611C128.039 73.5131 127.832 75.4811 127.832 75.4811C127.832 75.4811 126.467 73.5351 125.865 75.4811C125.263 77.4271 125.508 78.9241 126.038 78.8721C126.567 78.8211 126.894 78.8721 126.894 78.8721V79.7741L126.753 84.1171Z" fill="#403532"/>
<path d="M190.367 111.188L197.237 118.486C198.661 119.999 201.196 119.315 201.666 117.292L208.69 103.607C209.21 104.814 216.897 107.955 220.272 109.922L206.387 142.248C205.757 143.861 203.757 144.42 202.382 143.368L187.607 132.062C188.062 125.104 189.411 118.146 190.367 111.188Z" fill="#14BC92"/>
</svg>
