<svg width="400" height="400" viewBox="0 0 400 400" fill="none" xmlns="http://www.w3.org/2000/svg">
<g opacity="0.31">
<path d="M359.19 326.887C359.19 333.452 294.395 338.774 214.465 338.774C134.535 338.774 69.7402 333.452 69.7402 326.887C69.7402 320.322 134.535 315 214.465 315C294.395 315 359.19 320.322 359.19 326.887Z" fill="#87878A"/>
</g>
<path d="M173.875 134.826C186.528 137.262 213.371 136.458 233.308 136.292C240.971 136.221 248.35 136.954 251.897 139.106C252.535 139.484 253.056 139.91 253.434 140.407C255.066 142.583 256.603 151.948 255.397 153.154C241.491 167.061 235.578 242.292 235.885 252.343C236.121 260.029 240.639 290.775 241.845 304.894C242.223 309.269 242.294 312.06 241.798 312.06C239.74 312.06 237.659 319.155 237.659 319.155H273.418C273.56 316.884 273.513 314.047 273.324 310.877C273.229 308.985 273.087 306.975 272.898 304.894C271.242 285.927 266.654 259.485 265.756 252.627C264.574 243.782 270.77 212.138 272.544 211.925C274.318 211.712 275.216 238.745 277.865 249.387C279.946 257.783 302.248 291.13 311.614 304.894C314.121 308.607 315.706 310.877 315.706 310.877C313.341 312.06 311.567 319.155 313.932 320.645C316.297 322.111 340.539 303.782 341.437 298.177C341.626 297.018 340.444 294.204 338.481 290.443C337.582 288.717 336.518 286.825 335.335 284.767C326.442 269.394 310.857 246.335 309.202 241.984C306.837 235.788 308.019 207.123 305.654 185.531C303.289 163.938 291.653 154.786 291.464 153.012C291.37 152.042 291.961 148.684 293.593 145.397C294.326 143.883 295.296 142.37 296.526 141.116C297.448 140.17 298.513 139.366 299.742 138.822C301.303 138.136 304.732 138.089 309.155 138.467C322.659 139.602 345.245 144.545 351.182 146.698C359.058 149.559 367.737 149.181 370.882 146.698C374.051 144.238 372.372 144.144 370.196 143.954C368.02 143.741 368.233 143.363 370.385 139.602C372.561 135.865 378.379 124.726 376.7 122.952C375.021 121.178 369.51 133.311 368.824 132.814C368.138 132.317 370.881 127.493 369.415 127.185C367.925 126.901 364.685 133.499 365.465 131.442C366.246 129.361 367.452 125.411 364.59 126.594C361.728 127.776 361.634 131.04 358.677 131.04C356.525 131.04 333.489 120.587 315.965 113.208C309.366 110.441 303.548 108.076 299.93 106.894C296.69 105.83 293.473 105.049 290.494 104.505C288.223 104.079 286.071 103.796 284.132 103.583C278.219 102.968 274.175 103.157 274.175 103.157C271.621 103.063 268.617 103.205 265.448 103.441C263.509 103.583 261.498 103.796 259.488 104.009C254.498 104.577 249.578 105.286 245.795 105.854C243.241 106.232 238.771 107.25 233.378 108.55C222.097 111.27 206.984 115.196 197.311 117.088C182.979 119.902 178.674 120.494 175.884 117.679C173.07 114.888 170.539 114.888 170.397 116.071C170.137 118.152 174.181 122.196 172.1 120.872C170.042 119.524 166.424 117.987 166.424 120.186C166.424 122.409 173.354 128.629 173.354 130.096C173.354 131.586 172.03 130.025 170.54 130.096C167.371 130.261 169.831 134.046 173.875 134.826Z" fill="#FCD3BF"/>
<path d="M313.931 320.646C316.296 322.112 340.538 303.783 341.436 298.178C341.625 297.019 340.443 294.205 338.48 290.444L315.705 310.878C313.34 312.061 311.566 319.156 313.931 320.646Z" fill="#FF7254"/>
<path d="M237.66 319.156H273.419C273.561 316.885 273.514 314.048 273.325 310.878L241.799 312.061C239.741 312.061 237.66 319.156 237.66 319.156Z" fill="#FF7254"/>
<path d="M233.309 108.574V136.292C240.972 136.221 248.351 136.954 251.898 139.106L293.593 145.397C294.326 143.883 295.296 142.37 296.526 141.116C297.448 140.17 298.513 139.366 299.742 138.822C301.303 138.136 304.732 138.089 309.155 138.467L315.966 113.209C309.367 110.442 303.549 108.077 299.931 106.895C296.691 105.831 293.474 105.05 290.495 104.506C288.224 104.08 286.072 103.797 284.133 103.584C278.22 102.969 274.176 103.158 274.176 103.158C271.622 103.064 268.618 103.206 265.449 103.442C263.51 103.584 261.499 103.797 259.489 104.01C254.499 104.578 249.579 105.287 245.796 105.855C243.242 106.233 238.772 107.251 233.379 108.551C233.333 108.574 233.309 108.574 233.309 108.574Z" fill="#382D62"/>
<path d="M254.615 87.0191C254.615 89.6881 256.778 91.8511 259.447 91.8511C262.116 91.8511 264.279 89.6881 264.279 87.0191C264.279 84.3511 262.116 82.1871 259.447 82.1871C256.778 82.1881 254.615 84.3511 254.615 87.0191Z" fill="#557AC1"/>
<path d="M270.954 80.2881C273.147 80.9011 276.836 85.4951 277.747 88.7531C278.498 91.4401 278.842 94.3671 277.873 96.9841C274.681 105.611 266.032 100.563 263.378 94.7741C259.973 87.3441 265.416 78.7411 270.954 80.2881Z" fill="#FCD3BF"/>
<path d="M272.27 106.895H276.084C277.396 106.895 278.469 105.821 278.469 104.51V93.4641C278.469 92.1521 277.396 91.0791 276.084 91.0791H272.27C270.958 91.0791 269.885 92.1521 269.885 93.4641V104.51C269.885 105.822 270.958 106.895 272.27 106.895Z" fill="#FCD3BF"/>
<path d="M277.356 89.3331C277.356 89.3331 279.495 86.8361 279.939 90.2361C280.382 93.6361 279.369 94.0791 277.732 93.4881C276.095 92.8971 277.356 89.3331 277.356 89.3331Z" fill="#FCD3BF"/>
<path d="M270.484 87.0141C267.54 84.9811 267.212 81.1391 267.951 80.3991C268.69 79.6601 273.185 77.0361 276.893 80.8051C280.601 84.5741 283.505 93.2221 278.468 95.2171L278.405 93.7081C278.405 93.7081 279.586 93.8171 279.787 92.2381C279.988 90.6591 279.795 88.7951 279.034 88.6281C278.273 88.4611 277.792 88.9161 277.792 88.9161C277.792 88.9161 274.176 89.5641 270.484 87.0141Z" fill="#557AC1"/>
<path d="M267.371 80.5841C267.371 80.5841 266.78 83.3191 268.11 85.6101C268.11 85.6101 263.675 89.2431 264.267 93.7091C264.858 98.1741 266.551 98.9871 266.551 98.9871C266.551 98.9871 262.198 96.3261 261.311 91.0791C260.424 85.8311 260.571 82.8751 267.371 80.5841Z" fill="#557AC1"/>
<path d="M272.846 79.7991C272.846 82.4671 275.009 84.6311 277.678 84.6311C280.347 84.6311 282.51 82.4681 282.51 79.7991C282.51 77.1311 280.347 74.9671 277.678 74.9671C275.009 74.9671 272.846 77.1301 272.846 79.7991Z" fill="#557AC1"/>
<path d="M235.886 252.344C236.122 260.03 240.64 290.776 241.846 304.895H272.899C271.243 285.928 266.655 259.486 265.757 252.628C264.575 243.783 270.771 212.139 272.545 211.926C274.319 211.713 275.217 238.746 277.866 249.388C279.947 257.784 302.249 291.131 311.615 304.895L335.336 284.769C326.443 269.396 310.858 246.337 309.203 241.986C306.838 235.79 308.02 207.125 305.655 185.533C303.29 163.94 291.654 154.788 291.465 153.014C291.323 151.595 292.671 145.068 296.526 141.118C281.65 132.982 290.495 104.507 290.495 104.507C288.224 104.081 286.072 103.798 284.133 103.585C283.258 105.832 281.744 115.458 281.153 118.13C280.515 121.086 266.443 119.502 264.527 118.13C262.611 116.758 264.669 109.261 265.449 103.443C263.51 103.585 261.499 103.798 259.489 104.011C255.989 120.101 253.435 140.409 253.435 140.409C255.067 142.585 256.604 151.95 255.398 153.156C241.491 167.061 235.579 242.293 235.886 252.344Z" fill="#7BABF7"/>
<path d="M308.257 299.713C316.107 292.653 323.957 285.592 331.808 278.531C332.432 277.97 331.509 277.052 330.888 277.611C323.038 284.672 315.187 291.732 307.337 298.793C306.713 299.355 307.635 300.272 308.257 299.713Z" fill="#382D62"/>
<path d="M241.292 299.904C251.623 299.717 261.954 299.531 272.284 299.344C273.12 299.329 273.123 298.028 272.284 298.043C261.953 298.229 251.622 298.416 241.292 298.603C240.456 298.618 240.453 299.919 241.292 299.904Z" fill="#382D62"/>
<path d="M272.018 156.45C271.977 174.942 271.936 193.434 271.895 211.926C271.893 212.763 273.194 212.764 273.196 211.926C273.237 193.434 273.278 174.942 273.319 156.45C273.321 155.613 272.02 155.612 272.018 156.45Z" fill="#382D62"/>
<path d="M272.495 161.76C265.664 163.271 265.969 171.93 267.366 177.088C267.585 177.895 268.84 177.553 268.621 176.742C267.419 172.302 266.785 164.354 272.842 163.014C273.658 162.834 273.312 161.579 272.495 161.76Z" fill="#382D62"/>
<path d="M255.07 153.717C266.386 159.334 280.252 158.137 291.638 153.641C292.408 153.337 292.072 152.078 291.292 152.386C280.257 156.743 266.72 158.051 255.727 152.594C254.978 152.222 254.319 153.344 255.07 153.717Z" fill="#382D62"/>
<path d="M261.974 155.604C262.031 165.175 257.012 174.848 246.16 173.507C245.331 173.404 245.338 174.706 246.16 174.808C257.717 176.236 263.337 165.879 263.275 155.604C263.27 154.767 261.969 154.765 261.974 155.604Z" fill="#382D62"/>
<path d="M280.882 156.623C282.738 167.741 291.05 176.47 302.805 172.687C303.599 172.431 303.259 171.175 302.459 171.432C291.334 175.012 283.862 166.614 282.137 156.277C281.999 155.454 280.745 155.803 280.882 156.623Z" fill="#382D62"/>
<path d="M265.824 126.691C270.564 126.874 275.303 127.057 280.043 127.241C279.826 127.024 279.609 126.807 279.392 126.591C279.659 131.051 278.007 136.967 272.544 136.802C267.024 136.635 265.905 130.464 266.474 126.042C266.581 125.214 265.279 125.222 265.173 126.042C264.503 131.239 266.291 137.952 272.544 138.103C278.724 138.253 281.007 131.827 280.693 126.591C280.671 126.23 280.412 125.955 280.042 125.941C275.302 125.758 270.563 125.574 265.823 125.391C264.987 125.357 264.988 126.658 265.824 126.691Z" fill="#382D62"/>
<path d="M272.237 78.8211C272.141 80.0961 272.436 81.5041 273.057 82.6181C274.391 85.0101 277.074 85.3511 279.555 84.9391C280.379 84.8021 280.029 83.5481 279.209 83.6841C277.07 84.0391 274.838 83.6711 273.945 81.4701C273.613 80.6521 273.472 79.7031 273.538 78.8211C273.6 77.9861 272.299 77.9901 272.237 78.8211Z" fill="#382D62"/>
<path d="M261.761 82.8131C260.59 84.4651 260.086 86.6651 260.643 88.6221C260.871 89.4261 262.127 89.0841 261.897 88.2761C261.43 86.6331 261.909 84.8461 262.884 83.4691C263.369 82.7851 262.241 82.1351 261.761 82.8131Z" fill="#382D62"/>
<path d="M54.6737 109.51C54.3057 109.054 53.9357 108.598 53.5647 108.142C49.9457 103.689 46.3217 99.3661 44.5337 98.0841C40.4647 95.1651 34.1857 94.5671 33.0597 95.7461C31.9347 96.9241 33.0427 97.4701 36.5597 98.0851C40.0777 98.7001 38.0327 99.8661 36.9117 99.4921C35.7907 99.1191 26.0597 97.0491 24.0367 99.4231C22.0147 101.798 26.3227 101.094 29.2867 101.436C32.2507 101.778 33.3537 102.381 32.7607 102.623C32.1677 102.865 28.8867 101.405 25.2107 102.101C21.5347 102.796 21.4247 104.973 23.0077 105.324C24.5907 105.676 25.6147 105.064 28.3017 105.271C30.9887 105.477 32.5937 105.543 32.1497 106.084C31.7057 106.625 23.9627 104.88 22.3097 106.938C20.6567 108.996 25.9727 108.657 29.9127 109.017C33.1167 109.31 38.7097 111.308 42.5087 115.305C43.0687 115.894 43.5807 116.533 44.0577 117.201C47.3947 114.295 50.9267 111.701 54.6737 109.51Z" fill="#FCD3BF"/>
<path d="M210.264 104.596C210.558 104.089 210.854 103.582 211.151 103.075C214.048 98.1211 216.969 93.2961 218.54 91.7561C222.115 88.2501 228.229 86.7001 229.522 87.6931C230.814 88.6861 229.803 89.3941 226.42 90.5391C223.038 91.6841 225.236 92.5241 226.287 91.9831C227.338 91.4431 236.639 87.9111 239 89.9491C241.361 91.9871 236.995 91.9491 234.119 92.7401C231.242 93.5311 230.244 94.2951 230.867 94.4431C231.49 94.5911 234.51 92.6481 238.248 92.7741C241.987 92.9001 242.428 95.0341 240.917 95.6231C239.406 96.2121 238.301 95.7641 235.677 96.3791C233.054 96.9931 231.477 97.3031 231.999 97.7701C232.52 98.2371 239.907 95.3301 241.854 97.1111C243.802 98.8921 238.497 99.3691 234.658 100.326C231.536 101.105 226.314 103.934 223.17 108.464C222.706 109.132 222.298 109.841 221.929 110.575C218.188 108.213 214.301 106.189 210.264 104.596Z" fill="#FCD3BF"/>
<path d="M177.158 95.0341C170.789 88.2691 161.863 84.5041 152.574 84.6641L139.755 84.8851C133.729 84.9891 127.774 86.2071 122.191 88.4781L110.764 93.1261C105.044 95.4531 100.092 99.3391 96.4712 104.342L81.3672 125.214C87.5452 126.217 79.1632 140.15 84.9582 143.904L106.077 127.965C107.046 127.046 108.647 127.554 108.909 128.863L114.025 173.017L147.367 172.216C151.659 172.113 155.876 171.065 159.718 169.146L181.881 158.077L171.953 122.323C171.608 120.777 173.382 119.643 174.64 120.606L189.609 132.061C190.063 125.103 191.412 118.146 192.368 111.188L177.158 95.0341Z" fill="#FF7254"/>
<path d="M181.881 158.078C181.881 158.078 211.956 204.244 211.537 239.333C211.117 274.422 211.789 312.337 211.789 312.337L177.547 312.526C177.547 312.526 182.704 260.892 177.547 241.526C172.39 222.16 160.552 201.562 157.405 201.777C154.258 201.992 145.655 255.507 140.2 274.697C134.745 293.887 135.61 313.613 135.61 313.613L101.48 309.021C101.48 309.021 111.14 237.552 113.028 213.017C114.916 188.482 114.025 173.019 114.025 173.019C114.025 173.019 163.831 169.428 181.881 158.078Z" fill="#7BABF7"/>
<path d="M53.5638 108.142C53.6778 108.302 64.4888 121.73 64.4888 121.73C68.5608 126.499 75.8118 128.434 80.7898 124.62L84.2238 121.99C87.0178 128.304 102.41 124.461 102.427 130.72L80.5968 147.897C75.4588 150.496 66.7928 148.433 63.3758 143.798L42.0918 114.916C46.0358 113.583 50.5678 110.976 53.5638 108.142Z" fill="#FF7254"/>
<path d="M101.831 306.496L99.8828 320.5C99.8828 320.5 137.387 328.729 138.381 323.965C139.375 319.201 135.609 313.612 135.609 313.612L101.831 306.496Z" fill="#FFEE93"/>
<path d="M177.575 311.837L177.236 326.064C177.236 326.064 215.259 326.942 215.703 322.038C216.146 317.134 211.788 312.336 211.788 312.336L177.575 311.837Z" fill="#FFEE93"/>
<path d="M129.198 77.2631C129.198 77.2631 129.714 70.3611 136.426 70.6371C143.138 70.9131 141.589 82.0941 136.426 83.7511C131.263 85.4071 127.813 81.1291 129.198 77.2631Z" fill="#FCD3BF"/>
<path d="M129.632 75.0921C129.632 75.0921 128.148 72.3221 127.734 75.0921C127.32 77.8621 126.919 79.4061 128.983 78.7031C131.047 78.0001 130.219 75.2391 130.219 75.2391L129.632 75.0921Z" fill="#FCD3BF"/>
<path d="M131.998 90.1911H131.648C130.055 90.1911 128.752 88.8881 128.752 87.2951V80.9401C128.752 79.3471 130.055 78.0441 131.648 78.0441H131.998C133.591 78.0441 134.894 79.3471 134.894 80.9401V87.2951C134.894 88.8881 133.591 90.1911 131.998 90.1911Z" fill="#FCD3BF"/>
<path d="M128.753 84.1171C128.753 84.1171 129.279 79.1921 125.69 78.8721C122.101 78.5521 121.692 69.9021 125.414 65.8521C128.502 62.4921 130.797 65.9901 133.972 63.9191C137.147 61.8481 141.237 60.9151 142.204 63.9181C143.17 66.9211 139.632 66.6791 142.255 69.5781C144.878 72.4771 146.95 78.0831 143.842 79.4401C140.734 80.7971 139.307 81.4191 139.307 81.4191C139.307 81.4191 140.46 78.3451 139.632 75.4461C138.804 72.5471 138.873 72.8281 136.043 73.8611C133.213 74.8941 132.523 74.2091 131.281 73.8611C130.039 73.5131 129.832 75.4811 129.832 75.4811C129.832 75.4811 128.467 73.5351 127.865 75.4811C127.263 77.4271 127.508 78.9241 128.038 78.8721C128.567 78.8211 128.894 78.8721 128.894 78.8721V79.7741L128.753 84.1171Z" fill="#FFEE93"/>
<path d="M192.367 111.188L199.237 118.486C200.661 119.999 203.196 119.315 203.666 117.292L210.69 103.607C211.21 104.814 218.897 107.955 222.272 109.922L208.387 142.248C207.757 143.861 205.757 144.42 204.382 143.368L189.607 132.062C190.062 125.104 191.411 118.146 192.367 111.188Z" fill="#FF7254"/>
</svg>
